<svg width="180" height="98" viewBox="0 0 180 98" fill="none" xmlns="http://www.w3.org/2000/svg">
<path d="M12.24 95H0.28V31.3H11.72V41.7H12.24C13.4533 38.32 15.9233 35.46 19.65 33.12C23.4633 30.6933 27.19 29.48 30.83 29.48C34.2967 29.48 37.2433 30 39.67 31.04L36.03 42.61C34.5567 42.0033 32.2167 41.7 29.01 41.7C24.5033 41.7 20.56 43.52 17.18 47.16C13.8867 50.8 12.24 55.0467 12.24 59.9V95ZM36.1275 75.5C36.1275 78.62 37.4275 81.22 40.0275 83.3C42.7142 85.38 45.8342 86.42 49.3875 86.42C54.4142 86.42 58.8775 84.5567 62.7775 80.83C66.7642 77.1033 68.7575 72.7267 68.7575 67.7C65.0308 64.7533 59.8308 63.28 53.1575 63.28C48.3042 63.28 44.2308 64.45 40.9375 66.79C37.7308 69.13 36.1275 72.0333 36.1275 75.5ZM51.5975 29.22C60.4375 29.22 67.4142 31.6033 72.5275 36.37C77.6408 41.05 80.1975 47.5067 80.1975 55.74V95H68.7575V86.16H68.2375C63.2975 93.44 56.7108 97.08 48.4775 97.08C41.4575 97.08 35.5642 95 30.7975 90.84C26.1175 86.68 23.7775 81.48 23.7775 75.24C23.7775 68.6533 26.2475 63.41 31.1875 59.51C36.2142 55.61 42.8875 53.66 51.2075 53.66C58.3142 53.66 64.1642 54.96 68.7575 57.56V54.83C68.7575 50.67 67.1108 47.16 63.8175 44.3C60.5242 41.3533 56.6675 39.88 52.2475 39.88C45.5742 39.88 40.2875 42.6967 36.3875 48.33L25.8575 41.7C31.6642 33.38 40.2442 29.22 51.5975 29.22ZM105.517 0.879995C109.85 0.879995 113.404 1.61666 116.177 3.09L112.927 13.62C110.847 12.58 108.507 12.06 105.907 12.06C102.96 12.06 100.534 13.1 98.627 15.18C96.807 17.1733 95.897 19.86 95.897 23.24V31.3H112.537V42.22H95.897V95H83.937V42.22H71.977V31.3H83.937V22.07C83.937 15.7433 85.9304 10.63 89.917 6.73C93.9904 2.83 99.1904 0.879995 105.517 0.879995ZM98.9084 63.15C98.9084 53.3567 101.985 45.2533 108.138 38.84C114.378 32.4267 122.222 29.22 131.668 29.22C141.115 29.22 148.915 32.4267 155.068 38.84C161.308 45.2533 164.428 53.3567 164.428 63.15C164.428 73.03 161.308 81.1333 155.068 87.46C148.915 93.8733 141.115 97.08 131.668 97.08C122.222 97.08 114.378 93.8733 108.138 87.46C101.985 81.0467 98.9084 72.9433 98.9084 63.15ZM110.868 63.15C110.868 69.9967 112.862 75.5433 116.848 79.79C120.835 84.0367 125.775 86.16 131.668 86.16C137.562 86.16 142.502 84.0367 146.488 79.79C150.475 75.5433 152.468 69.9967 152.468 63.15C152.468 56.39 150.475 50.8867 146.488 46.64C142.415 42.3067 137.475 40.14 131.668 40.14C125.862 40.14 120.922 42.3067 116.848 46.64C112.862 50.8867 110.868 56.39 110.868 63.15ZM179.547 86.94C179.547 89.3667 178.68 91.4467 176.947 93.18C175.3 94.9133 173.22 95.78 170.707 95.78C168.28 95.78 166.2 94.9133 164.467 93.18C162.734 91.4467 161.867 89.3667 161.867 86.94C161.867 84.4267 162.734 82.3467 164.467 80.7C166.2 78.9667 168.28 78.1 170.707 78.1C173.22 78.1 175.3 78.9667 176.947 80.7C178.68 82.3467 179.547 84.4267 179.547 86.94Z" fill="black"/>
</svg>
